<svg xmlns="http://www.w3.org/2000/svg" width="208" height="56" fill="none" viewBox="-0.00012579401663970202 0.0005134997772984207 201.49810791015625 55.99897003173828">
    <path fill="#fff" fill-rule="evenodd" d="M196.069 32.21c0-3.868-1.615-5.801-4.793-5.854v-4.079c3.204 0 5.72.901 7.521 2.675 1.801 1.775 2.701 4.264 2.701 7.442 0 3.02-.927 5.403-2.78 7.125-1.828 1.72-4.291 2.568-7.442 2.595v-4.079h.053c3.151 0 4.74-1.933 4.74-5.826zm-4.793-5.854h-.106c-3.125 0-4.688 1.933-4.688 5.853 0 3.867 1.616 5.8 4.794 5.826v4.079h-.186c-3.125 0-5.561-.874-7.362-2.649-1.775-1.774-2.675-4.21-2.675-7.309 0-3.02.927-5.43 2.754-7.204 1.854-1.774 4.317-2.675 7.442-2.675h.027v4.08zM136.799 41.85v-4.131h4.502v-3.496h-4.502v-4.105h4.502v-.318c0-1.192-.291-1.986-.874-2.437-.583-.45-1.642-.688-3.178-.688h-.45v-4.131h.45c2.066 0 3.443.079 4.131.211 1.43.265 2.596.9 3.496 1.933 1.165 1.351 1.748 3.444 1.748 6.277V41.85h-9.825zm0-21.452V16.53l.768-1.112h4.873l-5.191 4.979h-.45zm40.334 21.452h-5.323V22.543h5.323v19.306zm0-21.293h-5.323v-5.138h5.323v5.138zm-9.454 21.293h-7.257c-1.933 0-3.469-.185-4.608-.583-1.165-.397-2.172-1.085-3.046-2.065-1.668-1.854-2.489-4.264-2.489-7.204 0-3.337.98-5.853 2.966-7.548 1.483-1.27 3.867-1.907 7.177-1.907h7.257v4.132h-6.33c-1.986 0-3.443.424-4.317 1.271-.874.848-1.324 2.251-1.324 4.184 0 1.96.477 3.39 1.457 4.264.98.874 2.569 1.325 4.767 1.325h5.747v4.131zm-30.88-25.318v3.866h-2.649l2.649-3.866zm0 6.012v4.13h-8.502v-4.13h8.502zm0 7.574v4.105h-2.516c-1.324 0-1.987.609-1.987 1.8 0 1.14.954 1.696 2.861 1.696h1.642v4.131h-1.378c-1.774 0-2.86 0-3.284-.027-1.297-.132-2.304-.476-3.019-1.006-1.483-1.086-2.224-2.648-2.224-4.714 0-1.324.318-2.49.98-3.522.635-1.007 1.483-1.695 2.542-2.04.901-.29 2.357-.423 4.37-.423h2.013zm-12.474 11.732h-3.867c-2.33 0-3.972-.53-4.926-1.616-.98-1.086-1.456-2.966-1.456-5.641v-7.918h-3.364v-4.132h3.364v-7.124h5.323v7.124h4.926v4.131h-4.926v6.992c0 1.669.185 2.754.529 3.284.371.503 1.113.768 2.278.768h2.119v4.132zm-15.573-6.065a6.608 6.608 0 0 1-.9 3.364c-.583 1.06-1.324 1.8-2.225 2.198-.768.344-2.224.503-4.343.503H90.32v-4.131h9.454c1.219 0 2.04-.027 2.463-.08.874-.106 1.324-.635 1.324-1.589 0-.847-.344-1.404-1.032-1.668-.371-.133-1.113-.186-2.198-.186h-3.205c-2.225 0-3.867-.397-4.9-1.191-1.456-1.14-2.171-2.755-2.171-4.847 0-2.013.741-3.575 2.224-4.688.795-.609 2.225-.927 4.29-.927h11.309v4.132h-9.401c-1.033 0-1.722.053-2.04.159-.609.238-.9.768-.9 1.536 0 .9.37 1.457 1.112 1.695.398.132 1.166.212 2.33.212h3.099c2.119 0 3.761.45 4.926 1.403 1.166.954 1.748 2.33 1.748 4.105zM86.771 41.85h-7.336c-2.834 0-5.032-.212-6.568-.662-1.51-.424-2.807-1.192-3.867-2.304-2.33-2.437-3.496-5.854-3.496-10.25 0-4.846 1.484-8.554 4.476-11.07.954-.794 1.96-1.35 3.02-1.668 1.059-.318 2.462-.477 4.237-.477h9.534v4.714h-7.336c-1.907 0-3.31.132-4.184.397a4.21 4.21 0 0 0-2.225 1.536c-.397.53-.662 1.06-.795 1.563-.132.503-.238 1.404-.344 2.728h14.884v4.688H71.887c.186 2.25.848 3.84 2.013 4.74 1.139.9 3.072 1.35 5.773 1.35h7.098v4.715z" clip-rule="evenodd"/>
    <path fill="#FFFFFE" fill-rule="evenodd" d="M1.256 24.964L24.971 1.276a4.282 4.282 0 0 1 6.098 0l23.688 23.688a4.297 4.297 0 0 1 0 6.072L31.069 54.724a4.282 4.282 0 0 1-6.098 0L1.256 31.036a4.297 4.297 0 0 1 0-6.072z" clip-rule="evenodd"/>
    <path fill="#00B8E0" fill-rule="evenodd" d="M28.006 55.012c-.837 0-1.7-.34-2.355-.968L1.963 30.33A3.336 3.336 0 0 1 .995 28l10.208.576.654 11.124.628-11.046 14.03.838.785 13.218-10.156.602 10.208.602.654 11.098z" clip-rule="evenodd"/>
    <path fill="#30A7AF" fill-rule="evenodd" d="M39.759 44.62l-9.397 9.423a3.396 3.396 0 0 1-2.356.969l.655-11.02 11.098.628zM55.019 28c0 .838-.314 1.701-.969 2.33l-8.533 8.559-.602-10.313L55.02 28zM42.69 41.715l-.105.105-13.847.811.785-13.14 13.926-.81-.76 13.034z" clip-rule="evenodd"/>
    <path fill="#6CC0B1" fill-rule="evenodd" d="M28.006.987c.864 0 1.702.34 2.356.97L54.05 25.67c.655.628.969 1.492.969 2.33l-10.182-.576-.655-11.124-.654 11.045-14.003-.837-.786-13.218 10.156-.602-10.234-.602L28.006.987z" clip-rule="evenodd"/>
    <path fill="#B0D9C8" fill-rule="evenodd" d="M1.963 25.67l8.56-8.558.601 10.312L.994 28c0-.837.34-1.701.969-2.33zm11.386-11.385l.078-.105 13.847-.811-.76 13.14-13.95.81.785-13.034zm2.905-2.906l9.397-9.423a3.443 3.443 0 0 1 2.355-.968l-.628 11.02-11.124-.63z" clip-rule="evenodd"/>
    <path fill="#FFFFFE" fill-rule="evenodd" d="M28.006 1.01l1.89 25.1 25.1 1.89-25.1 1.89-1.89 25.1-1.889-25.1L1.017 28l25.1-1.89 1.89-25.1z" clip-rule="evenodd"/>
</svg>